# xmcd CD database file
#
# Track frame offsets:
#	182
#	15300
#	30220
#	40655
#	54837
#	64587
#	74340
#	85795
#	100817
#	111987
#	124107
#	136125
#	148570
#	162227
#	174015
#
# Disc length: 2483 seconds
#
# Revision: 0
# Processed by: cddbd v1.5.2PL0 Copyright (c) Steve Scherf et al.
# Submitted via: CDex 1.70beta2
#
DISCID=b009b10f
DTITLE=Peggy Lee - 15 Golden Classics
DYEAR=1987
DGENRE=Jazz
TTITLE0=Mr Wonderfull
TTITLE1=Lover
TTITLE2=I Didn't Know What Time It Was
TTITLE3=Black Coffee
TTITLE4=Love Me Or Leave Me
TTITLE5=My Heart Belongs To Daddy
TTITLE6=I've Got You Under My Skin
TTITLE7=When The World Was Young
TTITLE8=Siamese Cat Song
TTITLE9=He's A Tramp
TTITLE10=Let Me Go Lover
TTITLE11=Easy Living
TTITLE12=Johnny Guitar
TTITLE13=He Needs Me
TTITLE14=Joey, Joey, Joey
EXTD=YEAR: 1987
EXTT0=
EXTT1=
EXTT2=
EXTT3=
EXTT4=
EXTT5=
EXTT6=
EXTT7=
EXTT8=
EXTT9=
EXTT10=
EXTT11=
EXTT12=
EXTT13=
EXTT14=
PLAYORDER=
